<svg xmlns="http://www.w3.org/2000/svg" viewBox="0 0 653.62 256"><defs><style>.cls-1{fill:#009c5b;fill-rule:evenodd;}</style></defs><title>Green Logo Svg</title><g id="Layer_2" data-name="Layer 2"><g id="Layer_1-2" data-name="Layer 1"><path class="cls-1" d="M266.89,159.05h-7.62c-6.42,0-17.43-10.07-17.43-16.34V129.63c0-6.24,10-15.25,16.34-15.25h12c6.94,0,16.34,9.41,16.34,16.34v10.9c0,8.42-10.67,17.43-19.61,17.43Zm-57.73-50.11c-19.62,42.37,7.41,88.52,51.18,88.25,5.51,0,11.76-.71,17.05.38,4.89,1,9.11,4,9.11,9.41,0,9.91-6.17,11-16.32,10.91-9.06-.08-49-1.19-54.55,1C195.81,226.71,202.77,256,219,256h66.45c18,0,39.22-18.53,39.22-42.49,0-19.71-.83-22.56-12-39.21,11-16.36,12-24.23,12-44.67,0-27.22-27.33-54.46-54.47-54.46H220.05C200.52,75.17,197.94,99.22,209.16,108.94Z"/><path class="cls-1" d="M394.35,100.22v54.47C398,196,445.61,218,481.5,198.26c15.34,10.28,33.77,5.57,33.77-10.89v-85c0-23.37-32-26-37.51-7-3.11,10.73,2.17,48.62-2.24,58.77-5.27,16.82-44.1,24.34-43.5-15.22.15-10.14.19-21.88.05-37.61C432,92.1,424.81,82.79,414,82.79,402.48,82.79,394.35,89.73,394.35,100.22Z"/><path class="cls-1" d="M337.7,17.43V186.28c0,24.29,38.13,25,38.13,0V17.43C375.83,7,368.43,1.24,360.15,0h-6.77C345.1,1.24,337.7,7,337.7,17.43Z"/><path class="cls-1" d="M532.7,100.22v54.47C536.39,196,584,218,619.85,198.26c15.34,10.28,33.77,5.57,33.77-10.89v-85c0-23.37-32-26-37.51-7-3.11,10.73,2.17,48.62-2.24,58.77-5.27,16.82-44.1,24.34-43.5-15.22.15-10.14.19-21.88,0-37.61-.08-9.23-7.26-18.54-18.11-18.54C540.83,82.79,532.7,89.73,532.7,100.22Z"/><path class="cls-1" d="M104.8,221.38l32.37-41.84c2.11.64,18.6,10.15,20,11.66L104.8,221.38Zm-37.77.1L14.21,190.77l20.08-11.14L67,221.48ZM44.86,178.07C55.67,194.63,74,213.74,87,229.15l39.25-51.22-81.4.14Zm117.28-56.36c-2.85,7.28-19.43,45.81-19.82,50l19.87,11.1-.05-61ZM9.21,182.42l20-10.64-19.92-50-.06,60.62Zm76.46-87,42,73.39-84.36,0L85.67,95.42Zm9.1-3.29,64.93,9.36-24.28,61.16L94.77,92.13ZM35.84,162.3c-2-3.33-24-58.38-24.48-61l65.23-9.34L35.84,162.3Zm107.3-72.79L90.26,82.07l.06-23,52.82,30.41ZM28.23,89.36l52.7-30.27V81.92L28.23,89.36ZM.54,95.06,0,192l87.14,50.15,83.56-48.83.49-97.07-85.33-50Z"/></g></g></svg>