<?xml version="1.0" encoding="utf-8"?>
<svg version="1.1" preserveAspectRatio="xMidYMid meet" viewBox="0 0 640 640" width="640" height="640" xmlns="http://www.w3.org/2000/svg">
  <defs>
    <path d="M242.61 271.44L242.61 175L303.03 195.96L303.03 248.1L303.03 248.1L242.61 271.44Z" id="bTpwftLDy"/>
    <path d="M219.13 257.47L215.17 256.17L215.17 189.77L219.13 188.97L223.09 187.39L227.84 185.8L227.84 259.77L223.02 258.11L219.13 257.47ZM204.87 252.78L201.91 251.99L201.91 193.87L205.08 193.08L208.25 192.29L211.35 191.49L211.35 255.23L208.25 254.44L204.87 252.78ZM193.13 249.9L190.68 249.11L190.68 196.75L193.05 195.96L195.43 195.17L197.88 194.37L197.88 251.27L195.79 250.48L193.13 249.9ZM188.45 191.57L188.45 254.37L233.1 271.44L233.1 175.65L188.45 191.57Z" id="gdu9wsFpx"/>
    <path d="M383.19 271.44L383.19 175L443.62 195.96L443.62 248.1L443.62 248.1L383.19 271.44Z" id="d49SWJDSdF"/>
    <path d="M359.64 257.47L355.68 255.88L355.68 189.77L359.64 188.97L363.6 187.39L368.14 185.8L368.14 259.77L363.6 258.11L359.64 257.47ZM345.31 252.78L342.14 251.99L342.14 193.87L345.31 193.08L348.41 192.29L351.58 191.49L351.58 255.23L348.41 254.44L345.31 252.78ZM333.5 249.69L331.12 248.9L331.12 196.75L333.5 195.96L335.87 195.17L338.25 194.37L338.25 251.27L335.87 250.48L333.5 249.69ZM328.96 191.28L328.96 254.37L373.69 271.44L373.69 175.65L328.96 191.28Z" id="b1HcQApIm"/>
    <path d="M242.61 462.8L242.61 366.36L303.03 387.39L303.03 439.54L303.03 439.54L242.61 462.8Z" id="bKS9LBpcS"/>
    <path d="M219.13 448.83L215.17 447.24L215.17 381.13L219.13 380.34L223.02 378.68L227.77 377.09L227.77 451.21L223.02 449.69L219.13 448.83ZM204.87 444.15L201.91 443.07L201.91 385.02L205.08 384.23L208.25 383.43L211.35 382.64L211.35 446.6L208.25 445.8L204.87 444.15ZM193.13 441.05L190.68 440.33L190.68 388.19L193.05 387.39L195.43 386.6L197.88 385.81L197.88 442.56L195.79 441.84L193.13 441.05ZM188.45 382.71L188.45 445.8L233.1 462.87L233.1 367.08L188.45 382.71Z" id="b2a1TBN3WL"/>
    <path d="M383.19 462.8L383.19 366.36L443.62 387.39L443.62 439.54L443.62 439.54L383.19 462.8Z" id="b21notlAhD"/>
    <path d="M359.64 448.83L355.68 447.24L355.68 381.13L359.64 380.34L363.6 378.75L368.36 377.17L368.36 451.13L363.6 449.62L359.64 448.83ZM345.31 444.15L342.14 443.36L342.14 385.02L345.31 384.23L348.41 383.43L351.58 382.64L351.58 446.6L348.41 445.8L345.31 444.15ZM333.5 441.05L331.12 440.26L331.12 388.19L333.5 387.39L335.87 386.6L338.25 385.81L338.25 442.56L335.87 441.77L333.5 441.05ZM328.96 382.71L328.96 445.8L373.69 462.87L373.69 367.08L328.96 382.71Z" id="b7oAxgu1L"/>
    <path d="M318.01 366.36L318.01 270.65L377.65 291.75L377.65 343.82L377.65 343.82L318.01 366.36Z" id="b1J4PvdgOQ"/>
    <path d="M293.6 353.11L289.64 351.53L289.64 285.41L293.6 284.62L297.56 283.03L302.31 281.45L302.31 355.42L297.63 353.83L293.6 353.11ZM279.34 348.43L276.17 347.64L276.17 289.37L279.34 288.58L282.51 287.79L285.6 287L285.6 350.95L282.51 350.16L279.34 348.43ZM267.6 344.54L265.15 343.82L265.15 291.68L267.53 290.88L269.9 290.09L272.28 289.3L272.28 346.05L269.9 345.26L267.6 344.54ZM262.99 286.2L262.99 349.29L307.93 366.44L307.93 270.57L262.99 286.2Z" id="aRduKVrO"/>
    <path d="M178.22 366.36L178.22 270.65L237.92 291.75L237.92 343.82L237.92 343.82L178.22 366.36Z" id="d7jivRsIaX"/>
    <path d="M153.87 353.11L149.91 351.53L149.91 285.41L153.87 284.62L157.84 283.03L162.59 281.45L162.59 355.42L157.84 353.83L153.87 353.11ZM139.69 348.43L136.52 347.64L136.52 289.37L139.69 288.58L142.86 287.79L145.88 287.36L145.88 350.88L142.78 350.09L139.69 348.43ZM127.87 344.54L125.5 343.75L125.5 291.68L127.87 290.88L130.4 290.02L132.77 289.23L132.77 345.98L130.4 345.33L127.87 344.54ZM123.27 286.2L123.27 349.29L167.92 366.44L167.92 270.57L123.27 286.2Z" id="c3dgv2M0d"/>
    <path d="M456.22 366.36L456.22 270.65L515.78 291.75L515.78 343.82L515.78 343.82L456.22 366.36Z" id="aaHM0OBEm"/>
    <path d="M242.61 271.44L303.03 248.1L303.03 195.96L242.61 175L242.61 175L242.61 271.44Z" id="aTgfZPUTi"/>
    <path d="M383.19 271.44L443.62 248.1L443.62 195.96L383.19 175L383.19 175L383.19 271.44Z" id="c7ysFK8SM"/>
    <path d="M242.61 462.8L303.03 439.54L303.03 387.39L242.61 366.36L242.61 366.36L242.61 462.8Z" id="h3owu0AMqG"/>
    <path d="M383.19 462.8L443.62 439.54L443.62 387.39L383.19 366.36L383.19 366.36L383.19 462.8Z" id="fbJitDTZL"/>
    <path d="M318.01 366.36L377.65 343.82L377.65 291.75L318.01 270.65L318.01 270.65L318.01 366.36Z" id="k7r8rTzT4"/>
    <path d="M178.22 366.36L237.92 343.82L237.92 291.75L178.22 270.65L178.22 270.65L178.22 366.36Z" id="a57ouRC65Z"/>
    <path d="M456.22 366.36L515.78 343.82L515.78 291.75L456.22 270.65L456.22 270.65L456.22 366.36Z" id="a2tkDfl5Gk"/>
    <path d="M431.95 353.11L427.99 351.53L427.99 285.41L431.95 284.62L435.91 283.03L440.67 281.45L440.67 355.42L435.84 353.83L431.95 353.11ZM417.76 348.43L414.59 347.64L414.59 289.37L417.76 288.58L420.86 287.79L424.03 287L424.03 350.95L420.86 350.16L417.76 348.43ZM405.95 344.54L403.58 343.75L403.58 291.68L405.95 290.88L408.33 290.09L410.71 289.3L410.71 346.05L408.33 345.26L405.95 344.54ZM401.34 286.2L401.34 349.29L446.07 366.44L446.07 270.57L401.34 286.2Z" id="b151V6QQWQ"/>
  </defs>
  <g transform="matrix(1.589805, 0, 0, 1.570562, -187.982468, -180.907227)" style="">
    <g>
      <g>
        <path d="M242.61 271.44L242.61 175L303.03 195.96L303.03 248.1L303.03 248.1L242.61 271.44Z" transform="matrix(1, 0, 0, 1, 0, 0)" opacity="1" fill="#814b99" fill-opacity="1"/>
        <g>
          <path d="M242.61 271.44L242.61 175L303.03 195.96L303.03 248.1L303.03 248.1L242.61 271.44Z" transform="matrix(1, 0, 0, 1, 0, 0)" opacity="1" fill-opacity="0" stroke="#000000" stroke-width="1" stroke-opacity="0"/>
        </g>
      </g>
      <g>
        <path d="M219.13 257.47L215.17 256.17L215.17 189.77L219.13 188.97L223.09 187.39L227.84 185.8L227.84 259.77L223.02 258.11L219.13 257.47ZM204.87 252.78L201.91 251.99L201.91 193.87L205.08 193.08L208.25 192.29L211.35 191.49L211.35 255.23L208.25 254.44L204.87 252.78ZM193.13 249.9L190.68 249.11L190.68 196.75L193.05 195.96L195.43 195.17L197.88 194.37L197.88 251.27L195.79 250.48L193.13 249.9ZM188.45 191.57L188.45 254.37L233.1 271.44L233.1 175.65L188.45 191.57Z" transform="matrix(1, 0, 0, 1, 0, 0)" opacity="1" fill="#682a7a" fill-opacity="1"/>
        <g>
          <path d="M219.13 257.47L215.17 256.17L215.17 189.77L219.13 188.97L223.09 187.39L227.84 185.8L227.84 259.77L223.02 258.11L219.13 257.47ZM204.87 252.78L201.91 251.99L201.91 193.87L205.08 193.08L208.25 192.29L211.35 191.49L211.35 255.23L208.25 254.44L204.87 252.78ZM193.13 249.9L190.68 249.11L190.68 196.75L193.05 195.96L195.43 195.17L197.88 194.37L197.88 251.27L195.79 250.48L193.13 249.9ZM188.45 191.57L188.45 254.37L233.1 271.44L233.1 175.65L188.45 191.57Z" transform="matrix(1, 0, 0, 1, 0, 0)" opacity="1" fill-opacity="0" stroke="#000000" stroke-width="1" stroke-opacity="0"/>
        </g>
      </g>
      <g>
        <path d="M383.19 271.44L383.19 175L443.62 195.96L443.62 248.1L443.62 248.1L383.19 271.44Z" transform="matrix(1, 0, 0, 1, 0, 0)" opacity="1" fill="#814b99" fill-opacity="1"/>
        <g>
          <path d="M383.19 271.44L383.19 175L443.62 195.96L443.62 248.1L443.62 248.1L383.19 271.44Z" transform="matrix(1, 0, 0, 1, 0, 0)" opacity="1" fill-opacity="0" stroke="#000000" stroke-width="1" stroke-opacity="0"/>
        </g>
      </g>
      <g>
        <path d="M359.64 257.47L355.68 255.88L355.68 189.77L359.64 188.97L363.6 187.39L368.14 185.8L368.14 259.77L363.6 258.11L359.64 257.47ZM345.31 252.78L342.14 251.99L342.14 193.87L345.31 193.08L348.41 192.29L351.58 191.49L351.58 255.23L348.41 254.44L345.31 252.78ZM333.5 249.69L331.12 248.9L331.12 196.75L333.5 195.96L335.87 195.17L338.25 194.37L338.25 251.27L335.87 250.48L333.5 249.69ZM328.96 191.28L328.96 254.37L373.69 271.44L373.69 175.65L328.96 191.28Z" transform="matrix(1, 0, 0, 1, 0, 0)" opacity="1" fill="#682a7a" fill-opacity="1"/>
        <g>
          <path d="M359.64 257.47L355.68 255.88L355.68 189.77L359.64 188.97L363.6 187.39L368.14 185.8L368.14 259.77L363.6 258.11L359.64 257.47ZM345.31 252.78L342.14 251.99L342.14 193.87L345.31 193.08L348.41 192.29L351.58 191.49L351.58 255.23L348.41 254.44L345.31 252.78ZM333.5 249.69L331.12 248.9L331.12 196.75L333.5 195.96L335.87 195.17L338.25 194.37L338.25 251.27L335.87 250.48L333.5 249.69ZM328.96 191.28L328.96 254.37L373.69 271.44L373.69 175.65L328.96 191.28Z" transform="matrix(1, 0, 0, 1, 0, 0)" opacity="1" fill-opacity="0" stroke="#000000" stroke-width="1" stroke-opacity="0"/>
        </g>
      </g>
      <g>
        <path d="M242.61 462.8L242.61 366.36L303.03 387.39L303.03 439.54L303.03 439.54L242.61 462.8Z" transform="matrix(1, 0, 0, 1, 0, 0)" opacity="1" fill="#814b99" fill-opacity="1"/>
        <g>
          <path d="M242.61 462.8L242.61 366.36L303.03 387.39L303.03 439.54L303.03 439.54L242.61 462.8Z" transform="matrix(1, 0, 0, 1, 0, 0)" opacity="1" fill-opacity="0" stroke="#000000" stroke-width="1" stroke-opacity="0"/>
        </g>
      </g>
      <g>
        <path d="M219.13 448.83L215.17 447.24L215.17 381.13L219.13 380.34L223.02 378.68L227.77 377.09L227.77 451.21L223.02 449.69L219.13 448.83ZM204.87 444.15L201.91 443.07L201.91 385.02L205.08 384.23L208.25 383.43L211.35 382.64L211.35 446.6L208.25 445.8L204.87 444.15ZM193.13 441.05L190.68 440.33L190.68 388.19L193.05 387.39L195.43 386.6L197.88 385.81L197.88 442.56L195.79 441.84L193.13 441.05ZM188.45 382.71L188.45 445.8L233.1 462.87L233.1 367.08L188.45 382.71Z" transform="matrix(1, 0, 0, 1, 0, 0)" opacity="1" fill="#682a7a" fill-opacity="1"/>
        <g>
          <path d="M219.13 448.83L215.17 447.24L215.17 381.13L219.13 380.34L223.02 378.68L227.77 377.09L227.77 451.21L223.02 449.69L219.13 448.83ZM204.87 444.15L201.91 443.07L201.91 385.02L205.08 384.23L208.25 383.43L211.35 382.64L211.35 446.6L208.25 445.8L204.87 444.15ZM193.13 441.05L190.68 440.33L190.68 388.19L193.05 387.39L195.43 386.6L197.88 385.81L197.88 442.56L195.79 441.84L193.13 441.05ZM188.45 382.71L188.45 445.8L233.1 462.87L233.1 367.08L188.45 382.71Z" transform="matrix(1, 0, 0, 1, 0, 0)" opacity="1" fill-opacity="0" stroke="#000000" stroke-width="1" stroke-opacity="0"/>
        </g>
      </g>
      <g>
        <path d="M383.19 462.8L383.19 366.36L443.62 387.39L443.62 439.54L443.62 439.54L383.19 462.8Z" transform="matrix(1, 0, 0, 1, 0, 0)" opacity="1" fill="#814b99" fill-opacity="1"/>
        <g>
          <path d="M383.19 462.8L383.19 366.36L443.62 387.39L443.62 439.54L443.62 439.54L383.19 462.8Z" transform="matrix(1, 0, 0, 1, 0, 0)" opacity="1" fill-opacity="0" stroke="#000000" stroke-width="1" stroke-opacity="0"/>
        </g>
      </g>
      <g>
        <path d="M359.64 448.83L355.68 447.24L355.68 381.13L359.64 380.34L363.6 378.75L368.36 377.17L368.36 451.13L363.6 449.62L359.64 448.83ZM345.31 444.15L342.14 443.36L342.14 385.02L345.31 384.23L348.41 383.43L351.58 382.64L351.58 446.6L348.41 445.8L345.31 444.15ZM333.5 441.05L331.12 440.26L331.12 388.19L333.5 387.39L335.87 386.6L338.25 385.81L338.25 442.56L335.87 441.77L333.5 441.05ZM328.96 382.71L328.96 445.8L373.69 462.87L373.69 367.08L328.96 382.71Z" transform="matrix(1, 0, 0, 1, 0, 0)" opacity="1" fill="#682a7a" fill-opacity="1"/>
        <g>
          <path d="M359.64 448.83L355.68 447.24L355.68 381.13L359.64 380.34L363.6 378.75L368.36 377.17L368.36 451.13L363.6 449.62L359.64 448.83ZM345.31 444.15L342.14 443.36L342.14 385.02L345.31 384.23L348.41 383.43L351.58 382.64L351.58 446.6L348.41 445.8L345.31 444.15ZM333.5 441.05L331.12 440.26L331.12 388.19L333.5 387.39L335.87 386.6L338.25 385.81L338.25 442.56L335.87 441.77L333.5 441.05ZM328.96 382.71L328.96 445.8L373.69 462.87L373.69 367.08L328.96 382.71Z" transform="matrix(1, 0, 0, 1, 0, 0)" opacity="1" fill-opacity="0" stroke="#000000" stroke-width="1" stroke-opacity="0"/>
        </g>
      </g>
      <g>
        <path d="M318.01 366.36L318.01 270.65L377.65 291.75L377.65 343.82L377.65 343.82L318.01 366.36Z" transform="matrix(1, 0, 0, 1, 0, 0)" opacity="1" fill="#814b99" fill-opacity="1"/>
        <g>
          <path d="M318.01 366.36L318.01 270.65L377.65 291.75L377.65 343.82L377.65 343.82L318.01 366.36Z" transform="matrix(1, 0, 0, 1, 0, 0)" opacity="1" fill-opacity="0" stroke="#000000" stroke-width="1" stroke-opacity="0"/>
        </g>
      </g>
      <g>
        <path d="M293.6 353.11L289.64 351.53L289.64 285.41L293.6 284.62L297.56 283.03L302.31 281.45L302.31 355.42L297.63 353.83L293.6 353.11ZM279.34 348.43L276.17 347.64L276.17 289.37L279.34 288.58L282.51 287.79L285.6 287L285.6 350.95L282.51 350.16L279.34 348.43ZM267.6 344.54L265.15 343.82L265.15 291.68L267.53 290.88L269.9 290.09L272.28 289.3L272.28 346.05L269.9 345.26L267.6 344.54ZM262.99 286.2L262.99 349.29L307.93 366.44L307.93 270.57L262.99 286.2Z" transform="matrix(1, 0, 0, 1, 0, 0)" opacity="1" fill="#682a7a" fill-opacity="1"/>
        <g>
          <path d="M293.6 353.11L289.64 351.53L289.64 285.41L293.6 284.62L297.56 283.03L302.31 281.45L302.31 355.42L297.63 353.83L293.6 353.11ZM279.34 348.43L276.17 347.64L276.17 289.37L279.34 288.58L282.51 287.79L285.6 287L285.6 350.95L282.51 350.16L279.34 348.43ZM267.6 344.54L265.15 343.82L265.15 291.68L267.53 290.88L269.9 290.09L272.28 289.3L272.28 346.05L269.9 345.26L267.6 344.54ZM262.99 286.2L262.99 349.29L307.93 366.44L307.93 270.57L262.99 286.2Z" transform="matrix(1, 0, 0, 1, 0, 0)" opacity="1" fill-opacity="0" stroke="#000000" stroke-width="1" stroke-opacity="0"/>
        </g>
      </g>
      <g>
        <path d="M178.22 366.36L178.22 270.65L237.92 291.75L237.92 343.82L237.92 343.82L178.22 366.36Z" transform="matrix(1, 0, 0, 1, 0, 0)" opacity="1" fill="#814b99" fill-opacity="1"/>
        <g>
          <path d="M178.22 366.36L178.22 270.65L237.92 291.75L237.92 343.82L237.92 343.82L178.22 366.36Z" transform="matrix(1, 0, 0, 1, 0, 0)" opacity="1" fill-opacity="0" stroke="#000000" stroke-width="1" stroke-opacity="0"/>
        </g>
      </g>
      <g>
        <path d="M153.87 353.11L149.91 351.53L149.91 285.41L153.87 284.62L157.84 283.03L162.59 281.45L162.59 355.42L157.84 353.83L153.87 353.11ZM139.69 348.43L136.52 347.64L136.52 289.37L139.69 288.58L142.86 287.79L145.88 287.36L145.88 350.88L142.78 350.09L139.69 348.43ZM127.87 344.54L125.5 343.75L125.5 291.68L127.87 290.88L130.4 290.02L132.77 289.23L132.77 345.98L130.4 345.33L127.87 344.54ZM123.27 286.2L123.27 349.29L167.92 366.44L167.92 270.57L123.27 286.2Z" transform="matrix(1, 0, 0, 1, 0, 0)" opacity="1" fill="#682a7a" fill-opacity="1"/>
        <g>
          <path d="M153.87 353.11L149.91 351.53L149.91 285.41L153.87 284.62L157.84 283.03L162.59 281.45L162.59 355.42L157.84 353.83L153.87 353.11ZM139.69 348.43L136.52 347.64L136.52 289.37L139.69 288.58L142.86 287.79L145.88 287.36L145.88 350.88L142.78 350.09L139.69 348.43ZM127.87 344.54L125.5 343.75L125.5 291.68L127.87 290.88L130.4 290.02L132.77 289.23L132.77 345.98L130.4 345.33L127.87 344.54ZM123.27 286.2L123.27 349.29L167.92 366.44L167.92 270.57L123.27 286.2Z" transform="matrix(1, 0, 0, 1, 0, 0)" opacity="1" fill-opacity="0" stroke="#000000" stroke-width="1" stroke-opacity="0"/>
        </g>
      </g>
      <g>
        <path d="M456.22 366.36L456.22 270.65L515.78 291.75L515.78 343.82L515.78 343.82L456.22 366.36Z" transform="matrix(1, 0, 0, 1, 0, 0)" opacity="1" fill="#814b99" fill-opacity="1"/>
        <g>
          <path d="M456.22 366.36L456.22 270.65L515.78 291.75L515.78 343.82L515.78 343.82L456.22 366.36Z" transform="matrix(1, 0, 0, 1, 0, 0)" opacity="1" fill-opacity="0" stroke="#000000" stroke-width="1" stroke-opacity="0"/>
        </g>
      </g>
      <g>
        <path d="M242.61 271.44L303.03 248.1L303.03 195.96L242.61 175L242.61 175L242.61 271.44Z" transform="matrix(1, 0, 0, 1, 0, 0)" opacity="1" fill="#814b99" fill-opacity="1"/>
        <g>
          <path d="M242.61 271.44L303.03 248.1L303.03 195.96L242.61 175L242.61 175L242.61 271.44Z" transform="matrix(1, 0, 0, 1, 0, 0)" opacity="1" fill-opacity="0" stroke="#000000" stroke-width="1" stroke-opacity="0"/>
        </g>
      </g>
      <g>
        <path d="M383.19 271.44L443.62 248.1L443.62 195.96L383.19 175L383.19 175L383.19 271.44Z" transform="matrix(1, 0, 0, 1, 0, 0)" opacity="1" fill="#814b99" fill-opacity="1"/>
        <g>
          <path d="M383.19 271.44L443.62 248.1L443.62 195.96L383.19 175L383.19 175L383.19 271.44Z" transform="matrix(1, 0, 0, 1, 0, 0)" opacity="1" fill-opacity="0" stroke="#000000" stroke-width="1" stroke-opacity="0"/>
        </g>
      </g>
      <g>
        <path d="M242.61 462.8L303.03 439.54L303.03 387.39L242.61 366.36L242.61 366.36L242.61 462.8Z" transform="matrix(1, 0, 0, 1, 0, 0)" opacity="1" fill="#814b99" fill-opacity="1"/>
        <g>
          <path d="M242.61 462.8L303.03 439.54L303.03 387.39L242.61 366.36L242.61 366.36L242.61 462.8Z" transform="matrix(1, 0, 0, 1, 0, 0)" opacity="1" fill-opacity="0" stroke="#000000" stroke-width="1" stroke-opacity="0"/>
        </g>
      </g>
      <g>
        <path d="M383.19 462.8L443.62 439.54L443.62 387.39L383.19 366.36L383.19 366.36L383.19 462.8Z" transform="matrix(1, 0, 0, 1, 0, 0)" opacity="1" fill="#814b99" fill-opacity="1"/>
        <g>
          <path d="M383.19 462.8L443.62 439.54L443.62 387.39L383.19 366.36L383.19 366.36L383.19 462.8Z" transform="matrix(1, 0, 0, 1, 0, 0)" opacity="1" fill-opacity="0" stroke="#000000" stroke-width="1" stroke-opacity="0"/>
        </g>
      </g>
      <g>
        <path d="M318.01 366.36L377.65 343.82L377.65 291.75L318.01 270.65L318.01 270.65L318.01 366.36Z" transform="matrix(1, 0, 0, 1, 0, 0)" opacity="1" fill="#814b99" fill-opacity="1"/>
        <g>
          <path d="M318.01 366.36L377.65 343.82L377.65 291.75L318.01 270.65L318.01 270.65L318.01 366.36Z" transform="matrix(1, 0, 0, 1, 0, 0)" opacity="1" fill-opacity="0" stroke="#000000" stroke-width="1" stroke-opacity="0"/>
        </g>
      </g>
      <g>
        <path d="M178.22 366.36L237.92 343.82L237.92 291.75L178.22 270.65L178.22 270.65L178.22 366.36Z" transform="matrix(1, 0, 0, 1, 0, 0)" opacity="1" fill="#814b99" fill-opacity="1"/>
        <g>
          <path d="M178.22 366.36L237.92 343.82L237.92 291.75L178.22 270.65L178.22 270.65L178.22 366.36Z" transform="matrix(1, 0, 0, 1, 0, 0)" opacity="1" fill-opacity="0" stroke="#000000" stroke-width="1" stroke-opacity="0"/>
        </g>
      </g>
      <g>
        <path d="M456.22 366.36L515.78 343.82L515.78 291.75L456.22 270.65L456.22 270.65L456.22 366.36Z" transform="matrix(1, 0, 0, 1, 0, 0)" opacity="1" fill="#814b99" fill-opacity="1"/>
        <g>
          <path d="M456.22 366.36L515.78 343.82L515.78 291.75L456.22 270.65L456.22 270.65L456.22 366.36Z" transform="matrix(1, 0, 0, 1, 0, 0)" opacity="1" fill-opacity="0" stroke="#000000" stroke-width="1" stroke-opacity="0"/>
        </g>
      </g>
      <g>
        <path d="M431.95 353.11L427.99 351.53L427.99 285.41L431.95 284.62L435.91 283.03L440.67 281.45L440.67 355.42L435.84 353.83L431.95 353.11ZM417.76 348.43L414.59 347.64L414.59 289.37L417.76 288.58L420.86 287.79L424.03 287L424.03 350.95L420.86 350.16L417.76 348.43ZM405.95 344.54L403.58 343.75L403.58 291.68L405.95 290.88L408.33 290.09L410.71 289.3L410.71 346.05L408.33 345.26L405.95 344.54ZM401.34 286.2L401.34 349.29L446.07 366.44L446.07 270.57L401.34 286.2Z" transform="matrix(1, 0, 0, 1, 0, 0)" opacity="1" fill="#682a7a" fill-opacity="1"/>
        <g>
          <path d="M431.95 353.11L427.99 351.53L427.99 285.41L431.95 284.62L435.91 283.03L440.67 281.45L440.67 355.42L435.84 353.83L431.95 353.11ZM417.76 348.43L414.59 347.64L414.59 289.37L417.76 288.58L420.86 287.79L424.03 287L424.03 350.95L420.86 350.16L417.76 348.43ZM405.95 344.54L403.58 343.75L403.58 291.68L405.95 290.88L408.33 290.09L410.71 289.3L410.71 346.05L408.33 345.26L405.95 344.54ZM401.34 286.2L401.34 349.29L446.07 366.44L446.07 270.57L401.34 286.2Z" transform="matrix(1, 0, 0, 1, 0, 0)" opacity="1" fill-opacity="0" stroke="#000000" stroke-width="1" stroke-opacity="0"/>
        </g>
      </g>
    </g>
  </g>
</svg>