<?xml version="1.0" encoding="utf-8"?>
<svg id="Layer_1" data-name="Layer 1" viewBox="100 0 247.894 216.274" xmlns="http://www.w3.org/2000/svg">
  <defs>
    <style>.cls-1{opacity:0.07;isolation:isolate;}.cls-2{fill:#4285f4;}.cls-3{fill:#fff;}</style>
  </defs>
  <title>google-kubernetes-engine</title>
  <path d="M 330.411 95.012 L 285.075 16.202 C 281.564 10.08 275.1 6.247 268.044 6.102 L 177.372 6.102 C 170.316 6.247 163.853 10.08 160.342 16.202 L 115.006 94.895 C 111.482 101 111.482 108.521 115.006 114.626 L 160.342 193.906 C 163.769 200.158 170.246 204.133 177.372 204.359 L 268.044 204.359 C 275.171 204.133 281.647 200.158 285.075 193.906 L 330.411 115.096 C 333.934 108.865 333.934 101.243 330.411 95.012 Z"/>
  <path class="cls-1" d="M 250.544 63.653 L 249.722 67.529 L 242.558 60.364 L 199.453 66.824 L 171.03 101.707 L 181.365 112.277 L 172.322 109.811 L 194.755 149.979 L 253.715 204.242 L 268.044 204.242 C 275.171 204.016 281.647 200.041 285.075 193.789 L 319.958 133.184 Z"/>
  <polygon points="274.387 105.23 250.544 63.653 226.702 105.23 250.544 146.808 274.387 105.23"/>
  <polygon points="171.03 108.636 194.755 150.097 242.44 150.097 218.715 108.636 171.03 108.636"/>
  <polygon points="218.363 101.824 242.558 60.364 194.872 60.364 171.03 101.824 218.363 101.824"/>
  <path class="cls-2" d="M 335.15 97.65 L 288.382 16.167 C 284.802 9.786 278.099 5.792 270.783 5.68 L 177.005 5.68 C 169.69 5.792 162.986 9.786 159.406 16.167 L 112.638 97.409 C 109.022 103.718 109.022 111.471 112.638 117.78 L 159.406 199.746 C 162.962 206.2 169.641 210.317 177.005 210.594 L 270.783 210.594 C 278.153 210.337 284.841 206.214 288.382 199.746 L 335.271 118.262 C 338.91 111.862 338.864 104.008 335.15 97.65 Z"/>
  <path class="cls-1" d="M 269.578 80.413 L 223.894 60.042 L 180.26 83.788 L 178.451 135.981 L 252.944 210.594 L 270.783 210.594 C 278.153 210.337 284.841 206.214 288.382 199.746 L 325.146 135.861 Z"/>
  <g id="art" transform="matrix(1, 0, 0, 1, -1.936491, 1.101583)">
    <path class="cls-3" d="M270.309,78.468l-42.1882-24.34862a4.9083,4.9083,0,0,0-4.82151,0L181.11111,78.468a4.86173,4.86173,0,0,0-2.41075,4.21882V131.384a4.81428,4.81428,0,0,0,2.41075,4.09828l42.1882,24.34862a4.90825,4.90825,0,0,0,4.82151,0l42.1882-24.34862a4.86172,4.86172,0,0,0,2.41075-4.21882V82.68678A4.75688,4.75688,0,0,0,270.309,78.468Zm-5.66527,48.21509-14.7056-8.43764v-22.42l-21.69679,12.41539v25.19239l19.40658-11.21,14.7056,8.43764-36.40239,21.0941-36.40239-21.0941,14.7056-8.43764,19.40658,11.21V108.36132L201.96416,95.94593v22.29948l-14.7056,8.43764V84.61538L223.661,63.52128V80.5171l-19.40658,11.21,21.69679,12.41539L247.648,91.72711l-19.40658-11.21V63.52128l36.40239,21.0941Z"/>
  </g>
</svg>